HIERARCHY
ROOT Hips
{
 OFFSET 0.000000 0.000000 0.000000
 CHANNELS 6 Xposition Yposition Zposition Yrotation Xrotation Zrotation
 JOINT Chest
 {
  OFFSET 0.000000 11.395451 -0.039534
  CHANNELS 3 Yrotation Xrotation Zrotation
  JOINT Chest2
  {
   OFFSET 0.000000 9.398669 0.071813
   CHANNELS 3 Yrotation Xrotation Zrotation
   JOINT Chest3
   {
    OFFSET 0.000000 8.489801 0.000000
    CHANNELS 3 Yrotation Xrotation Zrotation
    JOINT Chest4
    {
     OFFSET 0.000000 8.489801 0.000000
     CHANNELS 3 Yrotation Xrotation Zrotation
     JOINT Neck
     {
      OFFSET 0.000000 12.404889 0.000000
      CHANNELS 3 Yrotation Xrotation Zrotation
      JOINT Head
      {
       OFFSET 0.000000 8.903270 0.092239
       CHANNELS 3 Yrotation Xrotation Zrotation
       End Site
       {
        OFFSET 0.000000 17.592497 0.007158
       }
      }
     }
     JOINT RightCollar
     {
      OFFSET -3.196775 6.966722 0.000000
      CHANNELS 3 Yrotation Xrotation Zrotation
      JOINT RightShoulder
      {
       OFFSET -15.955896 0.000000 0.000000
       CHANNELS 3 Yrotation Xrotation Zrotation
       JOINT RightElbow
       {
        OFFSET -24.792472 0.000000 0.000000
        CHANNELS 3 Yrotation Xrotation Zrotation
        JOINT RightWrist
        {
         OFFSET -20.900115 0.000000 0.025002
         CHANNELS 3 Yrotation Xrotation Zrotation
         End Site
         {
          OFFSET -16.056692 0.000000 0.000000
         }
        }
       }
      }
     }
     JOINT LeftCollar
     {
      OFFSET 3.196775 6.966722 0.000000
      CHANNELS 3 Yrotation Xrotation Zrotation
      JOINT LeftShoulder
      {
       OFFSET 15.955896 0.000000 0.000000
       CHANNELS 3 Yrotation Xrotation Zrotation
       JOINT LeftElbow
       {
        OFFSET 24.792472 0.000000 0.000000
        CHANNELS 3 Yrotation Xrotation Zrotation
        JOINT LeftWrist
        {
         OFFSET 20.900115 0.000000 0.025002
         CHANNELS 3 Yrotation Xrotation Zrotation
         End Site
         {
          OFFSET 16.056692 0.000000 0.000000
         }
        }
       }
      }
     }
    }
   }
  }
 }
 JOINT RightHip
 {
  OFFSET -9.568995 0.193718 0.019767
  CHANNELS 3 Yrotation Xrotation Zrotation
  JOINT RightKnee
  {
   OFFSET 0.000000 -56.649296 0.015402
   CHANNELS 3 Yrotation Xrotation Zrotation
   JOINT RightAnkle
   {
    OFFSET 0.000000 -41.365147 0.021264
    CHANNELS 3 Yrotation Xrotation Zrotation
    JOINT RightToe
    {
     OFFSET 0.000000 -7.465940 17.672538
     CHANNELS 3 Yrotation Xrotation Zrotation
     End Site
     {
      OFFSET 0.000000 -1.736315 7.837145
     }
    }
   }
  }
 }
 JOINT LeftHip
 {
  OFFSET 9.568995 0.193718 0.019767
  CHANNELS 3 Yrotation Xrotation Zrotation
  JOINT LeftKnee
  {
   OFFSET 0.000000 -56.649296 0.015402
   CHANNELS 3 Yrotation Xrotation Zrotation
   JOINT LeftAnkle
   {
    OFFSET 0.000000 -41.365147 0.021264
    CHANNELS 3 Yrotation Xrotation Zrotation
    JOINT LeftToe
    {
     OFFSET 0.000000 -7.465940 17.672538
     CHANNELS 3 Yrotation Xrotation Zrotation
     End Site
     {
      OFFSET 0.000000 -1.736315 7.837145
     }
    }
   }
  }
 }
}
MOTION
Frames: 13
Frame Time: 0.016667
42.628751 85.305426 304.437156 121.410855 89.218609 -64.930495 4.455666 10.566102 10.240371 1.736916 4.792801 4.429053 1.736911 4.792798 4.429048 1.267192 3.607431 3.306224 -0.515147 4.720245 6.188678 -4.597767 -27.043382 12.943905 -4.408776 33.467665 2.733712 133.160011 -46.971496 -62.135197 45.585004 -44.088991 -16.414717 19.620906 -24.082113 -7.244693 11.038109 25.358372 21.475643 -90.970227 -42.677116 47.434343 -65.601706 -59.480239 26.201725 5.667037 -18.339911 -15.311957 -171.847789 -44.511609 -176.255310 3.432419 70.448810 -3.767343 -44.535540 -20.765363 13.154253 0.000000 -0.000000 -0.000000 153.973535 -37.304087 -144.523452 -6.328542 73.549411 -6.542976 -49.078944 -17.672103 21.823568 0.000000 0.000000 0.000000
42.623003 84.790809 304.370076 78.888837 89.463991 -107.275844 4.511442 10.671687 10.212375 1.759705 4.840662 4.413950 1.759703 4.840662 4.413950 1.284034 3.643455 3.294556 -0.527402 4.533533 6.168030 -4.641239 -27.389138 12.937553 -4.612128 33.373032 2.534122 132.706153 -46.386004 -62.134856 46.170920 -44.507531 -17.058228 19.792252 -24.114912 -7.399850 11.366906 25.569057 21.486193 -91.844771 -42.603236 48.742165 -66.073957 -59.424767 26.715077 5.621439 -18.069121 -15.343243 -171.435109 -43.566963 -176.432079 3.689478 71.540063 -4.002277 -44.661270 -21.207463 13.446986 0.000000 0.000000 0.000000 154.166015 -36.503593 -144.853307 -5.797300 74.531649 -6.022676 -49.377838 -18.128268 22.342179 0.000000 -0.000000 0.000000
42.626160 84.305193 304.307174 36.268967 89.274139 -149.741790 4.588073 10.763517 10.190684 1.791907 4.882912 4.401299 1.791907 4.882912 4.401299 1.307955 3.675340 3.284660 -0.548950 4.381295 6.152166 -4.701066 -27.669553 12.941424 -4.815242 33.298610 2.357397 132.381477 -45.895385 -62.216469 46.704037 -44.802030 -17.592449 19.939564 -24.120995 -7.566871 11.699027 25.816924 21.509825 -92.594018 -42.501744 49.987141 -66.426742 -59.284473 27.093775 5.412147 -17.766114 -15.204497 -171.255937 -42.665674 -176.437720 3.750049 72.549848 -4.202894 -44.764024 -21.612130 13.715278 0.000000 0.000000 0.000000 154.380170 -35.737001 -145.148328 -5.422831 75.442774 -5.667477 -49.620156 -18.493338 22.803299 0.000000 0.000000 0.000000
42.639224 83.843260 304.255505 23.178097 88.873118 -162.704284 4.711926 10.834660 10.166295 1.845553 4.916959 4.386589 1.845553 4.916958 4.386582 1.348026 3.701219 3.273066 -0.586192 4.284731 6.147924 -4.790701 -27.843757 12.969601 -5.013637 33.294536 2.220367 132.430219 -45.551081 -62.547687 47.075164 -44.856353 -17.871536 20.043658 -24.079778 -7.749241 12.056325 26.155169 21.580120 -93.248554 -42.407041 51.222612 -66.599980 -58.987809 27.247449 4.954891 -17.379523 -14.775225 -171.553668 -41.795689 -176.071724 3.367768 73.457756 -4.385306 -44.833660 -21.969427 13.959123 0.000075 0.009804 -0.011681 154.689537 -34.988134 -145.413984 -5.354412 76.291657 -5.632372 -49.759033 -18.728819 23.182522 0.000000 0.000000 0.000000
42.661194 83.410327 304.208013 19.020690 88.457191 -166.756050 4.856845 10.892105 10.147291 1.908717 4.945430 4.373936 1.908719 4.945432 4.373931 1.395262 3.722994 3.262965 -0.632712 4.222569 6.149038 -4.896796 -27.952585 13.008613 -5.211068 33.310865 2.105896 132.602474 -45.297360 -62.947131 47.382501 -44.790506 -18.031023 20.122854 -24.012003 -7.942909 12.419187 26.529599 21.666733 -93.777712 -42.296201 52.395461 -66.655586 -58.608160 27.270224 4.345474 -16.955016 -14.175336 -172.056934 -40.965089 -175.572651 2.779118 74.284072 -4.544593 -44.878190 -22.290039 14.176862 0.000139 0.019606 -0.023362 155.021544 -34.273529 -145.646046 -5.530783 77.070604 -5.850645 -49.837241 -18.875158 23.501079 0.000000 0.000000 0.000000
42.689182 83.018213 304.163169 15.378722 88.069305 -170.318875 4.984816 10.953525 10.148136 1.963807 4.975494 4.370379 1.963807 4.975494 4.370379 1.436355 3.745923 3.259738 -0.678583 4.170686 6.159028 -5.005112 -28.041486 13.063949 -5.432002 33.287913 1.981039 132.763828 -45.080331 -63.294096 47.711381 -44.713711 -18.198205 20.230120 -23.983302 -8.138573 12.755620 26.791879 21.720579 -94.114642 -42.159142 53.354889 -66.655266 -58.238149 27.259650 3.719549 -16.666367 -13.647044 -172.474459 -40.172710 -175.203418 2.277442 75.064121 -4.669128 -44.919240 -22.557208 14.374612 0.000000 0.000000 0.000000 155.320922 -33.620318 -145.903572 -6.318871 77.769454 -6.663601 -49.764954 -18.980425 23.756946 0.000000 0.000000 0.000000
42.721665 82.672601 304.119827 10.575554 87.716616 -175.075159 5.075828 11.027063 10.183440 2.001424 5.010501 4.382720 2.001420 5.010494 4.382720 1.464180 3.772483 3.268538 -0.722755 4.126725 6.178433 -5.114196 -28.114809 13.136563 -5.705299 33.170557 1.821199 132.847090 -44.897435 -63.523905 48.045811 -44.691682 -18.382449 20.375825 -23.984938 -8.313635 13.053936 26.854198 21.713819 -94.180045 -41.975611 53.992398 -66.558450 -57.915946 27.220475 3.103179 -16.593201 -13.282351 -172.707959 -39.416001 -175.070025 2.027310 75.826493 -4.699328 -44.971771 -22.746602 14.559390 -0.000374 -0.069176 0.093670 155.585290 -33.059915 -146.253138 -8.555937 78.358729 -8.879763 -49.352877 -19.071459 23.921246 0.000000 0.000000 0.000000
42.760166 82.367808 304.079134 6.056446 87.377548 -179.573890 5.150710 11.103980 10.239530 2.031316 5.046902 4.404553 2.031313 5.046897 4.404553 1.486131 3.800078 3.284505 -0.766020 4.092953 6.206738 -5.224898 -28.168257 13.225280 -6.001146 33.013521 1.652608 132.921505 -44.751173 -63.702679 48.401970 -44.658424 -18.574416 20.550545 -24.025257 -8.491288 13.323909 26.805475 21.670322 -94.056015 -41.773382 54.420497 -66.407231 -57.604061 27.149921 2.460640 -16.660490 -12.978329 -172.870806 -38.701152 -175.049974 1.889874 76.543056 -4.668996 -45.019301 -22.882493 14.723744 -0.000644 -0.167561 0.222540 155.818086 -32.559872 -146.630014 -11.631717 78.836458 -11.921398 -48.788792 -19.122932 24.019758 0.000000 0.000000 0.000000
42.806356 82.098608 304.042999 2.835353 87.036261 177.212408 5.232521 11.176713 10.288613 2.064524 5.081543 4.423154 2.064524 5.081543 4.423154 1.510607 3.826374 3.298027 -0.801108 4.052219 6.245540 -5.326246 -28.234303 13.332026 -6.257168 32.922238 1.517335 133.055960 -44.596807 -63.906871 48.912343 -44.523301 -18.872839 20.779328 -24.194374 -8.732491 13.564306 26.762592 21.617383 -93.917846 -41.611773 54.818503 -66.382818 -57.280881 27.129429 1.825088 -16.813667 -12.685922 -172.998949 -38.045424 -175.050261 1.694926 77.163912 -4.714558 -45.037023 -23.020947 14.852433 -0.000728 -0.263988 0.315984 155.973374 -32.053037 -146.897631 -13.563225 79.280742 -13.868555 -48.550165 -19.103797 24.136468 0.000000 0.000000 0.000000
42.865059 81.868639 304.007160 0.846153 86.684491 175.219053 5.338977 11.237861 10.318888 2.109346 5.111384 4.432991 2.109345 5.111387 4.432994 1.543890 3.849122 3.304904 -0.831322 3.997019 6.298650 -5.428610 -28.325898 13.467925 -6.488250 32.981454 1.415727 133.294099 -44.391657 -64.177184 49.607562 -44.122978 -19.345199 21.138570 -24.630359 -9.132556 13.769778 26.800238 21.586706 -93.883661 -41.501478 55.320485 -66.353206 -56.839536 27.085353 1.199448 -17.148819 -12.467732 -173.086728 -37.461347 -175.047436 1.293814 77.651786 -4.990303 -44.997792 -23.197199 14.933808 -0.000871 -0.340978 0.341692 156.003154 -31.490334 -146.968781 -12.768789 79.780601 -13.177778 -48.964948 -18.965065 24.320756 0.000000 -0.000000 -0.000000
42.931451 81.674262 303.975879 -0.565934 86.340478 173.789817 5.452090 11.294946 10.341784 2.157377 5.139490 4.439433 2.157375 5.139492 4.439437 1.579617 3.870576 3.309209 -0.853198 3.934827 6.361936 -5.521224 -28.430092 13.621306 -6.680036 33.107070 1.345751 133.589231 -44.176255 -64.469796 50.442569 -43.615331 -19.910192 21.560406 -25.189499 -9.607224 13.946198 26.842831 21.548370 -93.837558 -41.430221 55.792031 -66.450478 -56.385749 27.092151 0.576798 -17.569635 -12.258475 -173.141411 -36.936504 -175.063473 0.817696 78.043176 -5.359106 -44.928950 -23.376256 14.978975 -0.001124 -0.416212 0.331848 155.959350 -30.923249 -146.936655 -10.339606 80.267054 -10.895210 -49.704483 -18.751029 24.525060 0.000000 -0.000000 -0.000000
42.992735 81.499330 303.963851 -1.551796 86.037857 172.783004 5.541093 11.363050 10.364351 2.194475 5.171963 4.446107 2.194475 5.171963 4.446107 1.607120 3.895225 3.313748 -0.849450 3.871076 6.424730 -5.561492 -28.540516 13.759242 -6.727195 33.151458 1.343317 133.876569 -44.031056 -64.735259 51.450115 -43.390576 -20.452249 21.846416 -25.544358 -9.934955 14.108357 26.782041 21.437244 -93.604028 -41.422028 56.008301 -67.240044 -56.212960 27.439647 -0.018961 -17.725314 -11.832825 -173.213908 -36.450598 -175.078638 0.521771 78.399899 -5.514478 -44.887908 -23.508830 15.007198 -0.001395 -0.511473 0.312490 155.945127 -30.436419 -146.933699 -8.462886 80.649964 -9.146187 -50.263731 -18.573576 24.692253 0.000000 0.000000 0.000000
43.040370 81.340575 303.981088 -2.080467 85.783420 172.219971 5.599208 11.453750 10.396835 2.217100 5.213911 4.457543 2.217106 5.213907 4.457545 1.623664 3.926890 3.321940 -0.800715 3.799399 6.482844 -5.508340 -28.672247 13.862728 -6.579968 33.050867 1.428844 134.303048 -44.008510 -65.063918 52.720799 -43.672331 -20.875306 21.877440 -25.470169 -9.960178 14.286516 26.600149 21.240492 -93.158598 -41.549171 55.914438 -69.556160 -56.563096 28.558613 -0.387741 -17.178454 -11.057649 -173.364527 -35.973488 -175.076204 0.583961 78.757033 -5.206286 -44.898124 -23.545341 15.036082 -0.001624 -0.671014 0.277123 156.027355 -30.058644 -147.027168 -8.390161 80.908618 -9.176223 -50.425237 -18.443327 24.779134 0.000000 0.000000 0.000000
